#!OML:ASF X:\für Bonn\!DataBase\2005_08_11_Bastian_Final\c3d\Bastian.ASF
:FULLY-SPECIFIED
:DEGREES
144
root -1.6284 17.1954 1.78598 168.903 3.58569 -175.706
lowerback 4.20929 -0.385515 1.78965
upperback 3.65262 -0.241301 1.67414
thorax 1.38887 -0.00326387 0.724322
lowerneck -3.95312 -4.31878 -3.72437
upperneck -2.51463 -5.41344 6.85852
head 0.201974 -2.58727 2.73021
rclavicle -7.50897e-015 -1.82012e-015
rhumerus -44.3652 30.9923 -107.191
rradius 35.4794
rwrist -27.5648
rhand -41.7367 1.34339
rfingers 7.12502
rthumb -14.6415 -28.1197
lclavicle -7.50897e-015 -1.82012e-015
lhumerus -88.5291 -43.193 148.645
lradius 32.2515
lwrist 44.5577
lhand -38.4511 20.0762
lfingers 7.12502
lthumb -11.4743 49.7422
rfemur -1.79797 2.12931 27.337
rtibia 38.934
rfoot -21.7649 -9.17114
rtoes -2.32139
lfemur 0.927308 1.97553 -15.0799
ltibia 36.1206
lfoot -20.6756 4.35636
ltoes -19.3579
145
root -1.61665 17.1965 1.7799 168.96 3.54338 -175.818
lowerback 4.15653 -0.434249 1.68014
upperback 3.67187 -0.313836 1.59747
thorax 1.43823 -0.041891 0.708847
lowerneck -4.15888 -4.29375 -3.77927
upperneck -2.53482 -5.36571 6.917
head 0.232028 -2.55656 2.75675
rclavicle -8.18511e-015 3.70236e-015
rhumerus -44.7522 30.922 -107.331
rradius 35.5458
rwrist -27.2456
rhand -41.8 1.30377
rfingers 7.12502
rthumb -14.7024 -28.1549
lclavicle -8.18511e-015 3.70236e-015
lhumerus -89.0075 -41.8686 147.833
lradius 32.8212
lwrist 43.887
lhand -38.1876 18.7409
lfingers 7.12502
lthumb -11.2202 48.4208
rfemur -1.85184 2.16304 27.2659
rtibia 38.9447
rfoot -21.7157 -9.23952
rtoes -2.17816
lfemur 0.742417 2.11251 -15.1849
ltibia 36.2956
lfoot -20.8365 4.15354
ltoes -20.5343
146
root -1.60486 17.1962 1.77367 168.972 3.43663 -175.928
lowerback 4.1434 -0.488655 1.52298
upperback 3.69587 -0.392752 1.52715
thorax 1.47084 -0.084323 0.726824
lowerneck -4.37419 -4.2793 -3.72558
upperneck -2.51095 -5.34041 6.88815
head 0.272592 -2.53839 2.733
rclavicle 1.25017e-015 -9.14409e-015
rhumerus -45.1342 30.7808 -107.425
rradius 35.6476
rwrist -26.897
rhand -41.8252 1.17677
rfingers 7.12502
rthumb -14.7268 -28.2801
lclavicle 1.25017e-015 -9.14409e-015
lhumerus -89.6166 -40.6817 147.407
lradius 33.1455
lwrist 43.2095
lhand -37.9337 17.6005
lfingers 7.12502
lthumb -10.9753 47.2936
rfemur -1.84218 2.18092 27.2056
rtibia 38.9446
rfoot -21.6843 -9.38703
rtoes -2.19703
lfemur 0.59193 2.2046 -15.2946
ltibia 36.4709
lfoot -21.0529 3.83605
ltoes -21.2447
147
root -1.59415 17.1973 1.76683 168.997 3.2868 -176.021
lowerback 4.09367 -0.555129 1.35592
upperback 3.74179 -0.487546 1.46849
thorax 1.54696 -0.13416 0.762502
lowerneck -4.63138 -4.27348 -3.65102
upperneck -2.48341 -5.32571 6.86153
head 0.321534 -2.52427 2.70514
rclavicle 1.06381e-014 -1.70955e-014
rhumerus -45.4325 30.6074 -107.443
rradius 35.7013
rwrist -26.5005
rhand -41.8656 1.08888
rfingers 7.12502
rthumb -14.7657 -28.3652
lclavicle 1.06381e-014 -1.70955e-014
lhumerus -90.2365 -39.6675 147.257
lradius 33.2982
lwrist 42.5214
lhand -37.6703 16.7529
lfingers 7.12502
lthumb -10.7213 46.4594
rfemur -1.83355 2.27011 27.176
rtibia 38.9349
rfoot -21.6297 -9.59965
rtoes -1.77132
lfemur 0.434202 2.26586 -15.4057
ltibia 36.6306
lfoot -21.2308 3.40234
ltoes -21.5374
148
root -1.58354 17.1988 1.75969 169.001 3.09308 -176.093
lowerback 4.07491 -0.626289 1.19458
upperback 3.77548 -0.587523 1.40153
thorax 1.59345 -0.186782 0.78661
lowerneck -4.83474 -4.26243 -3.52919
upperneck -2.48349 -5.30522 6.84681
head 0.351062 -2.50828 2.67432
rclavicle 2.99575e-015 1.39149e-015
rhumerus -45.7689 30.4256 -107.515
rradius 35.779
rwrist -26.2149
rhand -41.927 1.01893
rfingers 7.12502
rthumb -14.8248 -28.4308
lclavicle 2.99575e-015 1.39149e-015
lhumerus -90.8946 -38.7679 147.351
lradius 33.2455
lwrist 41.816
lhand -37.3672 16.1451
lfingers 7.12502
lthumb -10.4289 45.8665
rfemur -1.7963 2.34323 27.1692
rtibia 38.9081
rfoot -21.5611 -9.84886
rtoes -1.51784
lfemur 0.29576 2.22966 -15.526
ltibia 36.7792
lfoot -21.398 2.85873
ltoes -21.3903
149
root -1.5732 17.2008 1.7528 168.987 2.87004 -176.158
lowerback 4.06051 -0.693272 1.01568
upperback 3.82387 -0.680595 1.34782
thorax 1.65336 -0.235754 0.833891
lowerneck -5.04553 -4.26533 -3.35434
upperneck -2.47526 -5.3078 6.77016
head 0.381907 -2.50478 2.61244
rclavicle -1.84264e-014 3.62782e-015
rhumerus -46.0391 30.2576 -107.532
rradius 35.8196
rwrist -25.9354
rhand -41.9833 0.835538
rfingers 7.12502
rthumb -14.8791 -28.6102
lclavicle -1.84264e-014 3.62782e-015
lhumerus -91.5492 -38.0004 147.647
lradius 33.0868
lwrist 41.0492
lhand -37.0226 15.8988
lfingers 7.12502
lthumb -10.0964 45.6365
rfemur -1.72431 2.46135 27.1865
rtibia 38.864
rfoot -21.4812 -10.1458
rtoes -1.12276
lfemur 0.18284 2.17755 -15.6474
ltibia 36.9134
lfoot -21.5165 2.24147
ltoes -20.9606
150
root -1.56405 17.2017 1.74585 168.96 2.6182 -176.181
lowerback 4.00306 -0.767624 0.905226
upperback 3.90197 -0.780555 1.28529
thorax 1.76733 -0.285571 0.833338
lowerneck -5.21078 -4.27115 -3.19039
upperneck -2.499 -5.31237 6.73666
head 0.396675 -2.50252 2.56827
rclavicle -6.1499e-015 -5.56597e-015
rhumerus -46.2384 30.1445 -107.575
rradius 35.8109
rwrist -25.7285
rhand -42.0627 0.570812
rfingers 7.12502
rthumb -14.9556 -28.8692
lclavicle -6.1499e-015 -5.56597e-015
lhumerus -92.103 -37.3709 147.935
lradius 32.8032
lwrist 40.2949
lhand -36.6153 15.7475
lfingers 7.12502
lthumb -9.70346 45.504
rfemur -1.63603 2.51981 27.2351
rtibia 38.8026
rfoot -21.366 -10.4708
rtoes -0.829732
lfemur 0.0776945 2.2018 -15.7197
ltibia 37.0406
lfoot -21.5407 1.56447
ltoes -20.7209
151
root -1.55546 17.2033 1.73915 168.904 2.35176 -176.186
lowerback 3.97289 -0.854133 0.771432
upperback 3.97089 -0.895841 1.26414
thorax 1.85807 -0.343929 0.888741
lowerneck -5.26003 -4.26878 -3.08037
upperneck -2.59079 -5.30354 6.7039
head 0.371034 -2.49673 2.53758
rclavicle 7.20284e-015 1.36167e-014
rhumerus -46.4726 30.1916 -107.656
rradius 35.736
rwrist -25.5845
rhand -42.1262 0.211638
rfingers 7.12502
rthumb -15.0167 -29.2238
lclavicle 7.20284e-015 1.36167e-014
lhumerus -92.5461 -36.7465 148.183
lradius 32.5214
lwrist 39.5144
lhand -36.1924 15.7859
lfingers 7.12502
lthumb -9.29544 45.5609
rfemur -1.51089 2.67546 27.3307
rtibia 38.7362
rfoot -21.2812 -10.8592
rtoes -0.367503
lfemur -0.000824645 2.20812 -15.788
ltibia 37.1511
lfoot -21.4787 1.00128
ltoes -20.7465
152
root -1.54792 17.2047 1.73269 168.847 2.08316 -176.187
lowerback 3.94793 -0.924508 0.683928
upperback 4.04429 -0.987928 1.20802
thorax 1.94923 -0.389228 0.881607
lowerneck -5.35317 -4.28038 -2.89217
upperneck -2.62993 -5.31922 6.65677
head 0.367837 -2.50232 2.48596
rclavicle -1.84497e-015 7.65321e-015
rhumerus -46.6622 30.2695 -107.782
rradius 35.6304
rwrist -25.5862
rhand -42.1972 -0.174923
rfingers 7.12502
rthumb -15.0851 -29.6053
lclavicle -1.84497e-015 7.65321e-015
lhumerus -92.9652 -36.2146 148.275
lradius 32.3053
lwrist 38.7262
lhand -35.7815 15.8798
lfingers 7.12502
lthumb -8.899 45.6721
rfemur -1.38391 2.82834 27.4273
rtibia 38.668
rfoot -21.1945 -11.2644
rtoes 0.0612317
lfemur -0.0766389 2.21194 -15.8619
ltibia 37.2478
lfoot -21.397 0.541313
ltoes -20.8068
153
root -1.54144 17.206 1.72749 168.773 1.78737 -176.187
lowerback 3.94527 -0.999715 0.591889
upperback 4.12688 -1.08461 1.15417
thorax 2.03777 -0.436373 0.879525
lowerneck -5.44486 -4.2982 -2.69583
upperneck -2.6925 -5.34202 6.59987
head 0.356688 -2.51161 2.42987
rclavicle 1.17562e-014 -1.91827e-014
rhumerus -46.7788 30.3815 -107.895
rradius 35.4614
rwrist -25.6324
rhand -42.2305 -0.668368
rfingers 7.12502
rthumb -15.1172 -30.0963
lclavicle 1.17562e-014 -1.91827e-014
lhumerus -93.2449 -35.7833 148.21
lradius 32.1156
lwrist 37.9811
lhand -35.3797 16.0536
lfingers 7.12502
lthumb -8.5112 45.8621
rfemur -1.25602 2.9211 27.5097
rtibia 38.6043
rfoot -21.1069 -11.6469
rtoes 0.333445
lfemur -0.129738 2.16295 -15.9391
ltibia 37.3268
lfoot -21.2938 0.141294
ltoes -20.6631
154
root -1.53676 17.2067 1.72206 168.722 1.50251 -176.164
lowerback 3.90858 -1.07189 0.525487
upperback 4.20678 -1.1773 1.12403
thorax 2.14265 -0.481293 0.886688
lowerneck -5.48904 -4.31744 -2.56705
upperneck -2.79685 -5.36171 6.57197
head 0.327204 -2.52004 2.39712
rclavicle 3.23025e-015 1.61016e-014
rhumerus -46.9121 30.6711 -108.032
rradius 35.3084
rwrist -25.8499
rhand -42.2573 -1.24562
rfingers 7.12502
rthumb -15.143 -30.6716
lclavicle 3.23025e-015 1.61016e-014
lhumerus -93.4379 -35.4528 148.157
lradius 31.9026
lwrist 37.5172
lhand -35.0722 16.1464
lfingers 7.12502
lthumb -8.21448 45.9667
rfemur -1.15702 3.04634 27.6146
rtibia 38.5582
rfoot -21.0538 -12.0174
rtoes 0.783896
lfemur -0.190656 2.1085 -15.985
ltibia 37.3788
lfoot -21.1618 -0.250882
ltoes -20.2732
155
root -1.53235 17.2058 1.71824 168.638 1.22372 -176.122
lowerback 3.92519 -1.13898 0.466747
upperback 4.28585 -1.26086 1.10474
thorax 2.21701 -0.521043 0.901241
lowerneck -5.52109 -4.3385 -2.42152
upperneck -2.88586 -5.38692 6.52503
head 0.299549 -2.53209 2.35513
rclavicle 8.526e-015 -5.76476e-015
rhumerus -46.9806 30.9629 -108.142
rradius 35.0715
rwrist -26.149
rhand -42.2728 -1.71457
rfingers 7.12502
rthumb -15.158 -31.1394
lclavicle 8.526e-015 -5.76476e-015
lhumerus -93.6752 -35.2414 148.256
lradius 31.6899
lwrist 37.3201
lhand -34.8487 16.3516
lfingers 7.12502
lthumb -7.99876 46.1803
rfemur -1.03974 3.12059 27.7303
rtibia 38.5338
rfoot -20.9832 -12.3956
rtoes 1.02158
lfemur -0.187425 2.02544 -16.0141
ltibia 37.4036
lfoot -21.0429 -0.571727
ltoes -19.7813
156
root -1.53016 17.2055 1.71613 168.576 0.95143 -176.101
lowerback 3.94154 -1.1928 0.434798
upperback 4.35337 -1.32708 1.05613
thorax 2.27811 -0.551639 0.870339
lowerneck -5.56866 -4.36752 -2.25048
upperneck -2.95832 -5.42404 6.49081
head 0.279896 -2.54939 2.31207
rclavicle -5.07522e-015 -8.34896e-015
rhumerus -47.0155 31.3044 -108.277
rradius 34.8387
rwrist -26.5466
rhand -42.2783 -2.21965
rfingers 7.12502
rthumb -15.1633 -31.6441
lclavicle -5.07522e-015 -8.34896e-015
lhumerus -94.096 -35.2027 148.662
lradius 31.4493
lwrist 37.5229
lhand -34.6951 16.5529
lfingers 7.12502
lthumb -7.8505 46.3871
rfemur -0.963866 3.21723 27.8135
rtibia 38.5386
rfoot -20.9558 -12.7172
rtoes 1.409
lfemur -0.189297 1.96792 -16.0648
ltibia 37.3939
lfoot -20.8886 -0.86945
ltoes -19.3193
